<svg width="10" height="12" viewBox="0 0 10 12" fill="none" xmlns="http://www.w3.org/2000/svg">
<g clip-path="url(#clip0_3090_532)">
<path d="M6.32055 10.4649C6.13932 10.8831 6.01953 11.337 5.97363 11.8129L9.80881 10.9645C9.99004 10.5463 10.1097 10.0924 10.1557 9.61646L6.32055 10.4649Z" fill="#252525"/>
<path d="M10.6682 8.96023C10.8823 8.46619 11.0239 7.92982 11.0781 7.36745L7.54817 8.14879V6.64678L10.6681 5.95676C10.8822 5.46272 11.0238 4.92635 11.078 4.36399L7.54807 5.14466V-0.257025C7.00717 0.059041 6.52681 0.479759 6.13632 0.976022V5.45706L4.72457 5.76934V-0.991699C4.18368 -0.675744 3.70331 -0.254915 3.31283 0.241349V6.08152L0.154041 6.78009C-0.0600962 7.27413 -0.201751 7.8105 -0.256086 8.37287L3.31283 7.58353V9.47504L-0.511962 10.3209C-0.726099 10.815 -0.867647 11.3513 -0.921875 11.9137L3.08161 11.0283C3.40751 10.9577 3.68762 10.7572 3.86973 10.4812L4.60395 9.34839V9.34817C4.68017 9.23097 4.72457 9.08965 4.72457 8.93745V7.27124L6.13632 6.95895V9.96297L10.6681 8.96L10.6682 8.96023Z" fill="#252525"/>
</g>
<defs>
<clipPath id="clip0_3090_532">
<rect width="10" height="12" fill="white"/>
</clipPath>
</defs>
</svg>
